<svg width="34" height="28" viewBox="0 0 34 28" fill="none" xmlns="http://www.w3.org/2000/svg">
<path d="M0.0160002 27.736C0.0160002 25.816 0.0160002 23.96 0.0160002 22.168C0.0800002 20.312 0.144 18.616 0.208 17.08C0.336 11.576 1.2 7.448 2.8 4.696C4.4 1.88 7.408 0.471998 11.824 0.471998L12.976 5.368C10.48 5.432 8.88 6.264 8.176 7.86399C7.472 9.464 7.12 11.512 7.12 14.008H13.744V27.736H0.0160002ZM19.6 27.736C19.6 25.816 19.6 23.96 19.6 22.168C19.664 20.312 19.728 18.616 19.792 17.08C19.92 11.576 20.784 7.448 22.384 4.696C23.984 1.88 26.992 0.471998 31.408 0.471998L32.56 5.368C30.064 5.432 28.464 6.264 27.76 7.86399C27.056 9.464 26.704 11.512 26.704 14.008H33.328V27.736H19.6Z" fill="#F7654A"/>
</svg>
